# xmcd
#
# Track frame offsets: 
#        150
#        20888
#        36996
#        54470
#        66688
#        87232
#        100451
#        113626
#        129875
#        143933
#        154194
#        169883
#        183997
#        197610
#        210060
#        220455
#        234068
#
# Disc length: 3378 seconds
#
# Revision: 0
# Processed by: cddbd v1.5.2PL0 Copyright (c) Steve Scherf et al.
# Submitted via: ExactAudioCopy v0.99pb4
#
DISCID=f10d3011
DTITLE=Various Artist - Country Party CD1
DYEAR=1900
DGENRE=Country
TTITLE0=How do i live
TTITLE1=You're still the one
TTITLE2=Blue bayou
TTITLE3=Adios amigo
TTITLE4=Island in the stream
TTITLE5=Rose garden
TTITLE6=D.I.V.O.R.C.E.
TTITLE7=To all the girls
TTITLE8=I will always love you
TTITLE9=Don't make my brown eyes blue
TTITLE10=Your cheatin' Heart
TTITLE11=Always on my mind
TTITLE12=Rhinestone cowboy
TTITLE13=King of the road
TTITLE14=I love you because
TTITLE15=There goes my everything
TTITLE16=Dance the night away
EXTD=
EXTT0=
EXTT1=
EXTT2=
EXTT3=
EXTT4=
EXTT5=
EXTT6=
EXTT7=
EXTT8=
EXTT9=
EXTT10=
EXTT11=
EXTT12=
EXTT13=
EXTT14=
EXTT15=
EXTT16=
PLAYORDER=
